HIERARCHY
ROOT reference
{
  OFFSET 0 0 0
  CHANNELS 6 Xposition Yposition Zposition Zrotation Xrotation Yrotation
  JOINT Hips
  {
    OFFSET 349.773 89.4622 219.413
    CHANNELS 3 Zrotation Xrotation Yrotation
    JOINT RightUpLeg
    {
      OFFSET -9.25229 -1.56476 -0.00486621
      CHANNELS 3 Zrotation Xrotation Yrotation
      JOINT RightLeg
      {
        OFFSET 0.0546168 -41.8841 0.068862
        CHANNELS 3 Zrotation Xrotation Yrotation
        JOINT RightFoot
        {
          OFFSET -1.63893 -40.8901 3.53979
          CHANNELS 3 Zrotation Xrotation Yrotation
          End Site
          {
            OFFSET 0 -7.69 17.5
          }
        }
      }
    }
    JOINT LeftUpLeg
    {
      OFFSET 9.30241 -1.63853 -0.0284428
      CHANNELS 3 Zrotation Xrotation Yrotation
      JOINT LeftLeg
      {
        OFFSET 0.0539686 -41.842 -0.0517406
        CHANNELS 3 Zrotation Xrotation Yrotation
        JOINT LeftFoot
        {
          OFFSET 1.12518 -42.5382 -2.5849
          CHANNELS 3 Zrotation Xrotation Yrotation
          End Site
          {
            OFFSET 0 -7.69 17.5
          }
        }
      }
    }
    JOINT Spine
    {
      OFFSET 0.0144198 14.3187 0.0981135
      CHANNELS 3 Zrotation Xrotation Yrotation
      JOINT Spine1
      {
        OFFSET 0.0112165 9.7169 0.0514987
        CHANNELS 3 Zrotation Xrotation Yrotation
        JOINT Spine2
        {
          OFFSET 0.0255827 10.1205 -0.00638435
          CHANNELS 3 Zrotation Xrotation Yrotation
          JOINT Spine3
          {
            OFFSET -0.00190646 9.72552 0.024249
            CHANNELS 3 Zrotation Xrotation Yrotation
            JOINT Neck
            {
              OFFSET -0.136438 10.3681 0.0553958
              CHANNELS 3 Zrotation Xrotation Yrotation
              JOINT Head
              {
                OFFSET 0.0264476 9.5071 0.170402
                CHANNELS 3 Zrotation Xrotation Yrotation
                End Site
                {
                  OFFSET 0 15.95 0
                }
              }
            }
            JOINT RightShoulder
            {
              OFFSET -3.1747 6.92483 0.00547946
              CHANNELS 3 Zrotation Xrotation Yrotation
              JOINT RightArm
              {
                OFFSET -12.7755 -0.0136287 0.0362428
                CHANNELS 3 Zrotation Xrotation Yrotation
                JOINT RightForeArm
                {
                  OFFSET -26.5642 -0.108975 -0.0233747
                  CHANNELS 3 Zrotation Xrotation Yrotation
                  JOINT RightHand
                  {
                    OFFSET -25.905 -0.185223 0.00356295
                    CHANNELS 3 Zrotation Xrotation Yrotation
                    JOINT RightHandThumb1
                    {
                      OFFSET -2.48905 0.190105 3.12053
                      CHANNELS 3 Zrotation Xrotation Yrotation
                      JOINT RightHandThumb2
                      {
                        OFFSET -3.68274 0 0
                        CHANNELS 3 Zrotation Xrotation Yrotation
                        JOINT RightHandThumb3
                        {
                          OFFSET -2.55832 0 0
                          CHANNELS 3 Zrotation Xrotation Yrotation
                          End Site
                          {
                            OFFSET -2.194 0 0
                          }
                        }
                      }
                    }
                    JOINT RightInHandIndex
                    {
                      OFFSET -3.22368 0.508421 1.97842
                      CHANNELS 3 Zrotation Xrotation Yrotation
                      JOINT RightHandIndex1
                      {
                        OFFSET -5.21684 -0.091368 0.999158
                        CHANNELS 3 Zrotation Xrotation Yrotation
                        JOINT RightHandIndex2
                        {
                          OFFSET -3.61937 0 0
                          CHANNELS 3 Zrotation Xrotation Yrotation
                          JOINT RightHandIndex3
                          {
                            OFFSET -2.0521 0 0
                            CHANNELS 3 Zrotation Xrotation Yrotation
                            End Site
                            {
                              OFFSET -1.805 0 0
                            }
                          }
                        }
                      }
                    }
                    JOINT RightInHandMiddle
                    {
                      OFFSET -3.38211 0.517263 0.756737
                      CHANNELS 3 Zrotation Xrotation Yrotation
                      JOINT RightHandMiddle1
                      {
                        OFFSET -5.17411 -0.084 0.313895
                        CHANNELS 3 Zrotation Xrotation Yrotation
                        JOINT RightHandMiddle2
                        {
                          OFFSET -3.94947 0 0
                          CHANNELS 3 Zrotation Xrotation Yrotation
                          JOINT RightHandMiddle3
                          {
                            OFFSET -2.47579 0 0
                            CHANNELS 3 Zrotation Xrotation Yrotation
                            End Site
                            {
                              OFFSET -1.975 0 0
                            }
                          }
                        }
                      }
                    }
                    JOINT RightInHandRing
                    {
                      OFFSET -3.36516 0.537895 -0.128947
                      CHANNELS 3 Zrotation Xrotation Yrotation
                      JOINT RightHandRing1
                      {
                        OFFSET -4.63474 -0.022105 -0.478947
                        CHANNELS 3 Zrotation Xrotation Yrotation
                        JOINT RightHandRing2
                        {
                          OFFSET -3.44238 0 0
                          CHANNELS 3 Zrotation Xrotation Yrotation
                          JOINT RightHandRing3
                          {
                            OFFSET -2.3881 0 0
                            CHANNELS 3 Zrotation Xrotation Yrotation
                            End Site
                            {
                              OFFSET -1.857 0 0
                            }
                          }
                        }
                      }
                    }
                    JOINT RightInHandPinky
                    {
                      OFFSET -3.16105 0.469368 -1.20179
                      CHANNELS 3 Zrotation Xrotation Yrotation
                      JOINT RightHandPinky1
                      {
                        OFFSET -4.14105 -0.022105 -1.09053
                        CHANNELS 3 Zrotation Xrotation Yrotation
                        JOINT RightHandPinky2
                        {
                          OFFSET -2.75653 0 0
                          CHANNELS 3 Zrotation Xrotation Yrotation
                          JOINT RightHandPinky3
                          {
                            OFFSET -1.74189 0 0
                            CHANNELS 3 Zrotation Xrotation Yrotation
                            End Site
                            {
                              OFFSET -1.645 0 0
                            }
                          }
                        }
                      }
                    }
                  }
                }
              }
            }
            JOINT LeftShoulder
            {
              OFFSET 3.23079 6.93624 -0.032633
              CHANNELS 3 Zrotation Xrotation Yrotation
              JOINT LeftArm
              {
                OFFSET 12.8235 -0.00564763 -0.0637926
                CHANNELS 3 Zrotation Xrotation Yrotation
                JOINT LeftForeArm
                {
                  OFFSET 26.4641 -0.00020372 -0.0407631
                  CHANNELS 3 Zrotation Xrotation Yrotation
                  JOINT LeftHand
                  {
                    OFFSET 25.9912 -0.0207868 -0.0178714
                    CHANNELS 3 Zrotation Xrotation Yrotation
                    JOINT LeftHandThumb1
                    {
                      OFFSET 2.48905 0.190105 3.12053
                      CHANNELS 3 Zrotation Xrotation Yrotation
                      JOINT LeftHandThumb2
                      {
                        OFFSET 3.68274 0 0
                        CHANNELS 3 Zrotation Xrotation Yrotation
                        JOINT LeftHandThumb3
                        {
                          OFFSET 2.55832 0 0
                          CHANNELS 3 Zrotation Xrotation Yrotation
                          End Site
                          {
                            OFFSET 2.194 0 0
                          }
                        }
                      }
                    }
                    JOINT LeftInHandIndex
                    {
                      OFFSET 3.22368 0.508421 1.97842
                      CHANNELS 3 Zrotation Xrotation Yrotation
                      JOINT LeftHandIndex1
                      {
                        OFFSET 5.21684 -0.091368 0.999158
                        CHANNELS 3 Zrotation Xrotation Yrotation
                        JOINT LeftHandIndex2
                        {
                          OFFSET 3.61937 0 0
                          CHANNELS 3 Zrotation Xrotation Yrotation
                          JOINT LeftHandIndex3
                          {
                            OFFSET 2.0521 0 0
                            CHANNELS 3 Zrotation Xrotation Yrotation
                            End Site
                            {
                              OFFSET 1.805 0 0
                            }
                          }
                        }
                      }
                    }
                    JOINT LeftInHandMiddle
                    {
                      OFFSET 3.38211 0.517263 0.756737
                      CHANNELS 3 Zrotation Xrotation Yrotation
                      JOINT LeftHandMiddle1
                      {
                        OFFSET 5.17411 -0.084 0.313895
                        CHANNELS 3 Zrotation Xrotation Yrotation
                        JOINT LeftHandMiddle2
                        {
                          OFFSET 3.94947 0 0
                          CHANNELS 3 Zrotation Xrotation Yrotation
                          JOINT LeftHandMiddle3
                          {
                            OFFSET 2.47579 0 0
                            CHANNELS 3 Zrotation Xrotation Yrotation
                            End Site
                            {
                              OFFSET 1.975 0 0
                            }
                          }
                        }
                      }
                    }
                    JOINT LeftInHandRing
                    {
                      OFFSET 3.36516 0.537895 -0.128947
                      CHANNELS 3 Zrotation Xrotation Yrotation
                      JOINT LeftHandRing1
                      {
                        OFFSET 4.63474 -0.022105 -0.478947
                        CHANNELS 3 Zrotation Xrotation Yrotation
                        JOINT LeftHandRing2
                        {
                          OFFSET 3.44238 0 0
                          CHANNELS 3 Zrotation Xrotation Yrotation
                          JOINT LeftHandRing3
                          {
                            OFFSET 2.3881 0 0
                            CHANNELS 3 Zrotation Xrotation Yrotation
                            End Site
                            {
                              OFFSET 1.857 0 0
                            }
                          }
                        }
                      }
                    }
                    JOINT LeftInHandPinky
                    {
                      OFFSET 3.16105 0.469368 -1.20179
                      CHANNELS 3 Zrotation Xrotation Yrotation
                      JOINT LeftHandPinky1
                      {
                        OFFSET 4.14105 -0.022105 -1.09053
                        CHANNELS 3 Zrotation Xrotation Yrotation
                        JOINT LeftHandPinky2
                        {
                          OFFSET 2.75653 0 0
                          CHANNELS 3 Zrotation Xrotation Yrotation
                          JOINT LeftHandPinky3
                          {
                            OFFSET 1.74189 0 0
                            CHANNELS 3 Zrotation Xrotation Yrotation
                            End Site
                            {
                              OFFSET 1.645 0 0
                            }
                          }
                        }
                      }
                    }
                  }
                }
              }
            }
          }
        }
      }
    }
  }
}
MOTION
Frames: 2
Frame Time: 0.00833333
7.500000000000000000e+02 0.000000000000000000e+00 0.000000000000000000e+00 0.000000000000000000e+00 0.000000000000000000e+00 0.000000000000000000e+00 -2.325161039829010345e+00 -5.513245511922885811e+00 -2.894346448248868775e+00 5.940887034797745159e+00 8.609693045886547935e+00 6.311606337858051141e+00 -1.118172241308460935e+00 -2.675761456849897968e+00 2.695807369766576311e-01 1.348326976556367018e+00 9.004557499223846406e-01 3.628431946490969562e+00 -4.297118940503607654e+00 1.057908628879002322e+01 9.765663831446027565e-01 -7.834981132625168598e+00 -4.189906563776593984e+00 4.761535125874667429e+00 4.103635756483634545e-01 -2.418520488459688256e+00 -6.186174006121099023e-01 -3.075261526888620089e+00 -5.441745938756079148e+00 -1.903110634370357879e+00 -8.791766538217191673e-01 -1.479668544191577340e+00 -4.695409537054176519e-01 -1.459378321828062486e+00 -2.415438584576524939e+00 -1.042690962054839243e+00 3.328881431278483960e-03 -3.466938480993703164e-01 6.652323993012166925e-01 6.787918742669073469e-01 -2.793899212411422806e+00 1.008639589556918637e+01 4.165715046183982029e-02 1.967400028450391858e+00 7.645248425632949818e+00 3.510826305302752193e+00 1.582263382530054274e+00 -6.362737499048805034e-01 -2.687780996076372375e+01 -1.451544881733646086e+01 -2.521288591260476775e+00 -3.422269145051969552e+00 3.690111502076182148e+01 6.518082073532950460e+01 1.049636915532745718e+01 8.608814816081983068e+00 4.782904331642111373e+00 0.000000000000000000e+00 0.000000000000000000e+00 0.000000000000000000e+00 9.121769186831784782e-16 2.527411784046148301e-16 0.000000000000000000e+00 6.279214750244350120e-15 6.921603813876079500e-15 0.000000000000000000e+00 -6.848396209861407893e-16 -3.605317054376768446e-16 -6.074441653224529154e-16 0.000000000000000000e+00 0.000000000000000000e+00 0.000000000000000000e+00 0.000000000000000000e+00 1.876559099692188084e-15 9.362973443747507535e-16 0.000000000000000000e+00 -3.546779285395404449e-15 -6.742860628150122719e-15 -6.848396209861407893e-16 -3.605317054376768446e-16 -6.074441653224529154e-16 0.000000000000000000e+00 -5.121951865611756892e-15 -2.509881576886487672e-15 0.000000000000000000e+00 5.188616727118437139e-15 8.690083907714500432e-16 0.000000000000000000e+00 -7.690840518681743078e-16 -4.616433970896643001e-15 -6.848396209861407893e-16 -3.605317054376768446e-16 -6.074441653224529154e-16 0.000000000000000000e+00 0.000000000000000000e+00 0.000000000000000000e+00 0.000000000000000000e+00 -4.462669819074956883e-15 1.946901202536369173e-15 0.000000000000000000e+00 2.716645648821965682e-15 -5.358314599889236092e-16 -6.848396209861407893e-16 -3.605317054376768446e-16 -6.074441653224529154e-16 0.000000000000000000e+00 0.000000000000000000e+00 0.000000000000000000e+00 0.000000000000000000e+00 3.046443054310142815e-15 -2.822729531771350582e-15 0.000000000000000000e+00 -3.477266908389316784e-15 -1.242975071086022555e-14 -1.116387625680490814e+01 -1.471749229853404728e+00 -5.314489919174800292e+00 -8.061664277391370703e+00 -1.134175817750661786e+01 -2.502436484554672269e+00 5.145174196964772761e+01 3.408003208499121683e+01 -2.922400139553377585e+01 1.502339108121114597e-01 5.112701382284200236e+00 -1.583616375738473714e+01 0.000000000000000000e+00 0.000000000000000000e+00 0.000000000000000000e+00 -2.159561435504238775e-16 4.207729918830102174e-15 0.000000000000000000e+00 3.056707273323225681e-15 1.321569107852235721e-15 0.000000000000000000e+00 -2.985752014217172780e-15 1.387928843096859522e-15 -7.026976097696126757e-16 0.000000000000000000e+00 0.000000000000000000e+00 0.000000000000000000e+00 0.000000000000000000e+00 1.187041298151586111e-15 5.644382389095102377e-15 0.000000000000000000e+00 1.229350532045002435e-15 -8.886896531527432656e-16 -2.985752014217172780e-15 1.387928843096859522e-15 -7.026976097696126757e-16 0.000000000000000000e+00 -2.818425695314526251e-15 -3.062316491156444323e-15 0.000000000000000000e+00 2.861757086243029738e-15 3.046813075115754827e-15 0.000000000000000000e+00 2.350227485075252193e-15 3.636724791804045592e-15 -2.985752014217172780e-15 1.387928843096859522e-15 -7.026976097696126757e-16 0.000000000000000000e+00 0.000000000000000000e+00 0.000000000000000000e+00 0.000000000000000000e+00 1.239283497955737227e-16 1.463545647471013111e-14 0.000000000000000000e+00 -3.772145327501969809e-15 2.467756038056826949e-15 -2.985752014217172780e-15 1.387928843096859522e-15 -7.026976097696126757e-16 0.000000000000000000e+00 0.000000000000000000e+00 0.000000000000000000e+00 0.000000000000000000e+00 -5.872841722710238412e-16 -2.847231936582926683e-15 0.000000000000000000e+00 2.024402675339207262e-15 7.812908149983312948e-15
7.500000000000000000e+02 0.000000000000000000e+00 0.000000000000000000e+00 0.000000000000000000e+00 0.000000000000000000e+00 0.000000000000000000e+00 -2.350529363934665383e+00 -5.566642103320813995e+00 -3.184994474613287885e+00 6.324298660128568450e+00 8.733750456630057002e+00 6.527356550367422017e+00 -1.196711261136448989e+00 -2.672835319840033197e+00 3.850028674580591725e-01 1.402629756284424323e+00 9.602674659421768233e-01 3.830520962048615363e+00 -4.259885027496436827e+00 1.072938230779769242e+01 9.693635326152820753e-01 -7.918134663047082356e+00 -3.940709238201780096e+00 4.948955504060925215e+00 4.665754578824252707e-01 -2.542198016325950327e+00 -5.257081199468133237e-01 -3.049990095384186084e+00 -5.532238242127403893e+00 -2.310660833996785790e+00 -8.765878652421594808e-01 -1.509852832370258024e+00 -5.733480006283676600e-01 -1.454203501488651407e+00 -2.467635224678657924e+00 -1.208994235811790885e+00 1.806373788978271611e-04 -3.438505938372861115e-01 7.043311793831309453e-01 6.738408280857899335e-01 -2.815066297250510274e+00 1.053992650141036691e+01 -2.431810310221360627e-02 2.079490468712849705e+00 8.152197825137179166e+00 3.644003416652705774e+00 1.664798139605181193e+00 -8.425678439406649733e-01 -2.688304061073475992e+01 -1.460506712444680844e+01 -3.087588060285894720e+00 -4.001342882665529288e+00 3.644726998529510809e+01 6.595224537975393275e+01 1.015608739752030942e+01 8.572670688823535556e+00 5.427830384748763670e+00 0.000000000000000000e+00 0.000000000000000000e+00 0.000000000000000000e+00 1.024598945770669888e-15 2.139379283653422123e-17 0.000000000000000000e+00 6.090645646331660782e-15 6.589047042378012314e-15 0.000000000000000000e+00 -7.832229796557038178e-16 -3.582309254843207941e-16 -5.302483790274326023e-16 0.000000000000000000e+00 0.000000000000000000e+00 0.000000000000000000e+00 0.000000000000000000e+00 1.638708054450926889e-15 5.909375997440972026e-16 0.000000000000000000e+00 -3.497239102620867858e-15 -6.951942674327503402e-15 -7.832229796557038178e-16 -3.582309254843207941e-16 -5.302483790274326023e-16 0.000000000000000000e+00 -4.951213219404033391e-15 -2.208983525547346416e-15 0.000000000000000000e+00 5.008171191974124484e-15 6.372496490134543138e-16 0.000000000000000000e+00 -7.723695771078076867e-16 -4.297034020794005460e-15 -7.832229796557038178e-16 -3.582309254843207941e-16 -5.302483790274326023e-16 0.000000000000000000e+00 0.000000000000000000e+00 0.000000000000000000e+00 0.000000000000000000e+00 -4.264622780103576408e-15 1.890133461241031221e-15 0.000000000000000000e+00 2.685437734038879604e-15 -5.219635301598390565e-16 -7.832229796557038178e-16 -3.582309254843207941e-16 -5.302483790274326023e-16 0.000000000000000000e+00 0.000000000000000000e+00 0.000000000000000000e+00 0.000000000000000000e+00 3.077635433827393847e-15 -2.864116174960757704e-15 0.000000000000000000e+00 -3.426717838015327125e-15 -1.200684062995852165e-14 -1.123215323294340351e+01 -1.340927240783385876e+00 -5.301283539369603837e+00 -7.605901943787585218e+00 -1.171651662756845802e+01 -3.025178677886340761e+00 5.363505908240366438e+01 3.425021945732699180e+01 -2.726610474627511849e+01 -9.297272740003914571e-02 5.320611344596017922e+00 -1.581576850238969456e+01 0.000000000000000000e+00 0.000000000000000000e+00 0.000000000000000000e+00 1.161991091225061913e-16 4.069485779117776378e-15 0.000000000000000000e+00 3.033687711223836654e-15 1.217280209049946505e-15 0.000000000000000000e+00 -3.017675617514465500e-15 1.421274990178125786e-15 -6.505873906780802448e-16 0.000000000000000000e+00 0.000000000000000000e+00 0.000000000000000000e+00 0.000000000000000000e+00 1.173613616177087848e-15 5.428544727323516816e-15 0.000000000000000000e+00 1.256494228547126136e-15 -9.522209899236431343e-16 -3.017675617514465500e-15 1.421274990178125786e-15 -6.505873906780802448e-16 0.000000000000000000e+00 -2.644217094289506048e-15 -2.904313599314738024e-15 0.000000000000000000e+00 2.890568138059141347e-15 2.864694925392722089e-15 0.000000000000000000e+00 2.481771546269992508e-15 3.489503579286707778e-15 -3.017675617514465500e-15 1.421274990178125786e-15 -6.505873906780802448e-16 0.000000000000000000e+00 0.000000000000000000e+00 0.000000000000000000e+00 0.000000000000000000e+00 1.183295069196332392e-16 1.423446603563024412e-14 0.000000000000000000e+00 -3.667665134444624553e-15 2.285100919337077019e-15 -3.017675617514465500e-15 1.421274990178125786e-15 -6.505873906780802448e-16 0.000000000000000000e+00 0.000000000000000000e+00 0.000000000000000000e+00 0.000000000000000000e+00 -5.989651202778958169e-16 -2.854291330979426269e-15 0.000000000000000000e+00 2.172858009056177165e-15 7.756595628977789954e-15
